<svg width="17" height="17" viewBox="0 0 17 17" fill="none" xmlns="http://www.w3.org/2000/svg">
<path d="M7.33366 14C8.81281 13.9997 10.2493 13.5045 11.4145 12.5933L15.0778 16.2567L16.2562 15.0783L12.5928 11.415C13.5045 10.2497 14 8.81287 14.0003 7.33334C14.0003 3.65751 11.0095 0.666672 7.33366 0.666672C3.65783 0.666672 0.666992 3.65751 0.666992 7.33334C0.666992 11.0092 3.65783 14 7.33366 14ZM7.33366 2.33334C10.0912 2.33334 12.3337 4.57584 12.3337 7.33334C12.3337 10.0908 10.0912 12.3333 7.33366 12.3333C4.57616 12.3333 2.33366 10.0908 2.33366 7.33334C2.33366 4.57584 4.57616 2.33334 7.33366 2.33334Z" fill="#72777C"/>
</svg>
