<svg width="13" height="15" viewBox="0 0 13 15" fill="none" xmlns="http://www.w3.org/2000/svg">
<path d="M12.875 13.1667V3.25001C12.875 2.46871 12.2396 1.83334 11.4583 1.83334H10.0417V0.416672H8.625V1.83334H4.375V0.416672H2.95833V1.83334H1.54167C0.760375 1.83334 0.125 2.46871 0.125 3.25001V13.1667C0.125 13.948 0.760375 14.5833 1.54167 14.5833H11.4583C12.2396 14.5833 12.875 13.948 12.875 13.1667ZM4.375 11.75H2.95833V10.3333H4.375V11.75ZM4.375 8.91667H2.95833V7.50001H4.375V8.91667ZM7.20833 11.75H5.79167V10.3333H7.20833V11.75ZM7.20833 8.91667H5.79167V7.50001H7.20833V8.91667ZM10.0417 11.75H8.625V10.3333H10.0417V11.75ZM10.0417 8.91667H8.625V7.50001H10.0417V8.91667ZM11.4583 5.37501H1.54167V3.95834H11.4583V5.37501Z" fill="#626669"/>
</svg>
